<svg xmlns="http://www.w3.org/2000/svg" viewBox="0 0 320.72 120.58"><defs><style>.cls-1{fill:#77787b}.cls-2{fill:#ed1c24}</style></defs><g id="Layer_2" data-name="Layer 2"><g id="Layer_1-2" data-name="Layer 1"><path class="cls-1" d="M239.78 56a13.86 13.86 0 0 0-7.41-5.24 10.46 10.46 0 0 0 4.77-4.55 13.68 13.68 0 0 0 1.74-6.64 13.85 13.85 0 0 0-1.06-5.24 15.55 15.55 0 0 0-2.95-4.66 14.43 14.43 0 0 0-4.25-3.27 17.49 17.49 0 0 0-5.79-1.74 58.13 58.13 0 0 0-7.22-.39h-7.8a5.43 5.43 0 0 0-5.43 5.43v47.69a5.44 5.44 0 0 0 5.43 5.44h9.24a60.36 60.36 0 0 0 9.3-.87 17 17 0 0 0 7-3 17.82 17.82 0 0 0 5.24-6.17 17.15 17.15 0 0 0 1.75-7.8 15.36 15.36 0 0 0-2.56-8.99zm-21.05-21.38h1.75a8.77 8.77 0 0 1 3.79.62 5.75 5.75 0 0 1 2.67 2 5.23 5.23 0 0 1 1 3.11 6.07 6.07 0 0 1-.89 3.21 5.65 5.65 0 0 1-2.42 2.2 21.75 21.75 0 0 1-7.39.86h-2v-12h3.49zm10 35.48a10.07 10.07 0 0 1-3.94 1.75 26 26 0 0 1-5 .42h-4.54V57.32H220a40.45 40.45 0 0 1 4.26.17 10.32 10.32 0 0 1 3.39 1 7.89 7.89 0 0 1 2.91 2.5 6 6 0 0 1 1 3.49 6.35 6.35 0 0 1-2.9 5.61zM271.12 37.1a22.1 22.1 0 0 1 9 1.83 23.18 23.18 0 0 1 12.26 12.56 23.62 23.62 0 0 1 1.74 9 23.33 23.33 0 0 1-23.45 23.27 22.54 22.54 0 0 1-11.6-3.15 23.67 23.67 0 0 1-8.5-8.54 22.3 22.3 0 0 1-3.16-11.59 23 23 0 0 1 1.83-9.19 23.54 23.54 0 0 1 21.9-14.23zm-.47 10.26a13 13 0 0 0-9 4 12.43 12.43 0 0 0-3.65 9.15 13.14 13.14 0 0 0 1.74 6.49 12.38 12.38 0 0 0 4.59 4.77 12.1 12.1 0 0 0 6.39 1.75 12.84 12.84 0 0 0 6.6-1.75 12.21 12.21 0 0 0 4.6-4.75 13.66 13.66 0 0 0 0-13.1 12.73 12.73 0 0 0-11.16-6.58zM316 38.47h-3.9v-9.36a5.24 5.24 0 0 0-10.48 0v9.36h-2.8a4.69 4.69 0 0 0 0 9.37h2.8v29.27a5.24 5.24 0 0 0 10.48 0V47.82h3.9a4.68 4.68 0 1 0 0-9.36z"/><path class="cls-2" d="M133.12 56.38C133.12 25.2 103.33 0 66.57 0S0 25.29 0 56.38s29.81 56.37 66.57 56.37a77.87 77.87 0 0 0 17.35-1.93v9.76l23.8-19.9c15.47-10.29 25.4-26.31 25.4-44.3zm-66.55 43.69c-29.44 0-53.24-19.53-53.24-43.69s23.88-43.69 53.24-43.69 53.24 19.54 53.24 43.69S96 100 66.57 100z"/><path class="cls-2" d="M100 59.93H87.53a3.53 3.53 0 0 0 0 7.05h5.12A33.07 33.07 0 0 1 66.7 78.72h-.31c-12.69 0-23.6-6.39-28.43-15.54a5.22 5.22 0 0 0-6.84-2.88 5.3 5.3 0 0 0-3.26 5 5.21 5.21 0 0 0 .94 3C35.6 80 49.94 88.16 66.57 88.18A45.69 45.69 0 0 0 98.25 76v3.43a3.51 3.51 0 1 0 7 0V65.21a5.29 5.29 0 0 0-5.25-5.28zM175.29 83.82a21.93 21.93 0 0 1-21.9-21.9V30.34a5.33 5.33 0 1 1 10.65 0v31.58a11.25 11.25 0 1 0 22.49 0V30.34a5.33 5.33 0 1 1 10.65 0v31.58a21.92 21.92 0 0 1-21.89 21.9z"/></g></g></svg>